<?xml version="1.0" encoding="UTF-8"?>
<!DOCTYPE svg PUBLIC "-//W3C//DTD SVG 1.1//EN" "http://www.w3.org/Graphics/SVG/1.1/DTD/svg11.dtd">
<!-- Creator: CorelDRAW 2020 (64-Bit) -->
<svg xmlns="http://www.w3.org/2000/svg" xml:space="preserve" width="297mm" height="210mm" version="1.1" style="shape-rendering:geometricPrecision; text-rendering:geometricPrecision; image-rendering:optimizeQuality; fill-rule:evenodd; clip-rule:evenodd"
viewBox="0 0 29700 21000"
 xmlns:xlink="http://www.w3.org/1999/xlink"
 xmlns:xodm="http://www.corel.com/coreldraw/odm/2003">
 <defs>
  <style type="text/css">
   <![CDATA[
    .fil3 {fill:none}
    .fil2 {fill:#FEFEFE}
    .fil0 {fill:#37612C}
    .fil1 {fill:#FEFEFE;fill-rule:nonzero}
   ]]>
  </style>
 </defs>

  <g id="_2067391686544">
   <path class="fil0" d="M6480.38 7378.86l16738.19 0c1720.52,0 3128.24,1407.71 3128.24,3128.25l0 0.02c0,1720.53 -1407.72,3128.25 -3128.24,3128.25l-16738.19 0c-1720.55,0 -3128.25,-1407.72 -3128.25,-3128.25l0 -0.02c0,-1720.54 1407.7,-3128.25 3128.25,-3128.25z"/>
   <path class="fil1" d="M5853.35 9472.67c139.73,0 269.81,26.01 390.24,78.05 120.4,52.03 225.94,123.39 316.63,214.07 90.68,90.69 162.04,196.23 214.07,316.66 52.03,120.4 78.05,250.48 78.05,390.24l0 802.76c0,139.75 -26.02,269.83 -78.05,390.24 -52.03,120.42 -123.39,226.71 -214.07,318.9 -90.69,92.17 -196.23,164.26 -316.63,216.3 -120.43,52.03 -250.51,78.04 -390.24,78.04l-200.7 0 0 -396.92 200.7 0c133.78,0 251.96,-37.92 354.54,-113.74 102.59,-75.8 174.69,-173.18 216.3,-292.13l-570.84 0c-136.77,0 -266.11,-26.01 -388.02,-78.04 -121.91,-52.03 -228.93,-124.13 -321.1,-216.3 -92.19,-92.16 -164.29,-199.21 -216.32,-321.1 -52.03,-121.91 -78.05,-251.25 -78.05,-388.01 0,-139.76 26.02,-269.84 78.05,-390.24 52.03,-120.43 124.13,-225.97 216.32,-316.66 92.17,-90.68 199.19,-162.04 321.1,-214.07 121.91,-52.04 251.25,-78.05 388.02,-78.05zm-606.56 999.02c0,83.25 15.63,162.04 46.85,236.36 31.2,74.34 74.32,139.01 129.31,194.01 55.02,55.02 119.69,98.11 194.01,129.34 74.35,31.22 153.13,46.82 236.39,46.82l606.53 0 0 -606.53c0,-83.26 -15.6,-161.31 -46.82,-234.15 -31.23,-72.84 -74.35,-136.76 -129.34,-191.78 -55.02,-55 -119.69,-98.12 -194.01,-129.32 -74.32,-31.22 -153.13,-46.85 -236.36,-46.85 -83.26,0 -162.04,15.63 -236.39,46.85 -74.32,31.2 -138.99,74.32 -194.01,129.32 -54.99,55.02 -98.11,118.94 -129.31,191.78 -31.22,72.84 -46.85,150.89 -46.85,234.15zm3545.86 298.81l280.99 280.96 -138.27 138.25c-95.13,95.15 -203.66,167.99 -325.57,218.54 -121.88,50.56 -249.74,75.83 -383.55,75.83 -133.78,0 -261.64,-25.27 -383.55,-75.83 -121.88,-50.55 -230.41,-123.39 -325.56,-218.54 -98.12,-98.11 -170.96,-208.87 -218.52,-332.26 -47.59,-123.39 -71.36,-249 -71.36,-376.85 0,-127.84 23.77,-252.73 71.36,-374.62 47.56,-121.91 120.4,-231.92 218.52,-330.03 98.11,-98.12 208.86,-171.7 332.25,-220.77 123.39,-49.07 249.03,-73.58 376.86,-73.58 127.86,0 253.47,24.51 376.86,73.58 123.39,49.07 234.14,122.65 332.26,220.77l138.27 138.25 -1110.51 1110.51c112.97,56.5 232.66,75.08 359.01,55.76 126.38,-19.33 237.13,-76.57 332.26,-171.72l138.25 -138.25zm-994.55 -718.05c-118.92,118.94 -178.38,261.66 -178.38,428.15 0,92.19 20.81,179.89 62.45,263.14 35.66,-35.69 89.91,-89.94 162.78,-162.78 72.84,-72.84 150.15,-150.15 231.9,-231.92 81.77,-81.75 160.56,-159.8 236.38,-234.15 75.8,-74.32 134.53,-132.3 176.17,-173.94 -113,-56.47 -232.67,-75.8 -359.02,-57.98 -126.37,17.85 -237.13,74.35 -332.28,169.48zm2859.03 -579.78l0 396.92 -200.69 0c-83.23,0 -161.28,15.63 -234.15,46.85 -72.84,31.2 -136.76,74.32 -191.76,129.32 -55.02,55.02 -98.11,118.94 -129.34,191.78 -31.22,72.84 -46.82,150.89 -46.82,234.15l0 1003.45 -401.39 0 0 -1003.45c0,-139.76 26.01,-269.84 78.04,-390.24 52.04,-120.43 124.13,-225.97 216.3,-316.66 92.17,-90.68 199.22,-162.04 321.13,-214.07 121.88,-52.04 251.22,-78.05 387.99,-78.05l200.69 0zm2961.62 0c139.73,0 269.81,26.01 390.23,78.05 120.41,52.03 226.72,123.39 318.88,214.07 92.17,90.69 164.27,196.23 216.3,316.66 52.03,120.4 78.05,250.48 78.05,390.24l0 1003.45 -396.93 0 0 -1003.45c0,-83.26 -15.6,-161.31 -46.82,-234.15 -31.23,-72.84 -74.32,-136.76 -129.34,-191.78 -54.99,-55 -119.66,-98.12 -194.01,-129.32 -74.32,-31.22 -153.11,-46.85 -236.36,-46.85 -83.26,0 -161.31,15.63 -234.14,46.85 -72.84,31.2 -136.77,74.32 -191.79,129.32 -54.99,55.02 -98.12,118.94 -129.31,191.78 -31.23,72.84 -46.85,150.89 -46.85,234.15l0 1003.45 -396.93 0 0 -1003.45c0,-83.26 -15.6,-161.31 -46.82,-234.15 -31.23,-72.84 -74.32,-136.76 -129.34,-191.78 -54.99,-55 -119.66,-98.12 -194.01,-129.32 -74.32,-31.22 -153.11,-46.85 -236.36,-46.85 -83.26,0 -161.31,15.63 -234.15,46.85 -72.83,31.2 -136.76,74.32 -191.78,129.32 -55,55.02 -98.12,118.94 -129.32,191.78 -31.22,72.84 -46.84,150.89 -46.84,234.15l0 1003.45 -396.93 0 0 -1003.45c0,-139.76 26.02,-269.84 78.05,-390.24 52.03,-120.43 123.39,-225.97 214.07,-316.66 90.69,-90.68 197,-162.04 318.88,-214.07 121.91,-52.04 251.25,-78.05 388.02,-78.05 166.51,0 318.88,36.43 457.12,109.27 138.28,72.84 253.47,171.72 345.64,296.59 92.19,-124.87 208.13,-223.75 347.88,-296.59 139.73,-72.84 291.38,-109.27 454.91,-109.27zm1396.2 0l392.45 0 0 2002.47 -392.45 0 0 -2002.47zm767.35 1003.48c0,-139.75 26.01,-269.83 78.04,-390.23 52.04,-120.43 123.39,-225.98 214.08,-316.66 90.68,-90.69 196.97,-162.04 318.88,-214.08 121.91,-52.03 251.25,-78.04 388.01,-78.04 139.73,0 269.81,26.01 390.24,78.04 120.4,52.04 226.71,123.39 318.88,214.08 92.17,90.68 164.26,196.23 216.3,316.66 52.03,120.4 78.04,250.48 78.04,390.23l0 1003.46 -396.92 0 0 -1003.46c0,-83.25 -15.6,-161.3 -46.83,-234.14 -31.22,-72.86 -74.34,-136.77 -129.33,-191.79 -55.02,-54.99 -119.69,-98.11 -194.01,-129.33 -74.32,-31.23 -153.14,-46.83 -236.37,-46.83 -83.25,0 -161.3,15.6 -234.14,46.83 -72.86,31.22 -136.77,74.34 -191.78,129.33 -55,55.02 -98.12,118.93 -129.34,191.79 -31.23,72.84 -46.83,150.89 -46.83,234.14l0 1003.46 -396.92 0 0 -1003.46zm3380.85 -1003.48c139.73,0 269.81,26.01 390.24,78.05 120.4,52.03 225.95,123.39 316.63,214.07 90.69,90.69 162.04,196.23 214.08,316.66 52.03,120.4 78.04,250.48 78.04,390.24l0 1003.45 -998.99 0c-136.77,0 -266.11,-26.01 -388.01,-78.04 -121.91,-52.03 -228.94,-124.13 -321.1,-216.3 -92.2,-92.16 -164.29,-199.21 -216.33,-321.1 -52.03,-121.91 -78.04,-251.25 -78.04,-388.01 0,-139.76 26.01,-269.84 78.04,-390.24 52.04,-120.43 124.13,-225.97 216.33,-316.66 92.16,-90.68 199.19,-162.04 321.1,-214.07 121.9,-52.04 251.24,-78.05 388.01,-78.05zm602.07 1605.55l0 -606.53c0,-83.26 -15.6,-161.31 -46.83,-234.15 -31.22,-72.84 -74.32,-136.76 -129.33,-191.78 -55,-55 -118.93,-98.12 -191.77,-129.32 -72.86,-31.22 -150.91,-46.85 -234.14,-46.85 -83.25,0 -162.04,15.63 -236.39,46.85 -74.32,31.2 -138.99,74.32 -194.01,129.32 -54.99,55.02 -98.11,118.94 -129.31,191.78 -31.22,72.84 -46.85,150.89 -46.85,234.15 0,83.25 15.63,162.04 46.85,236.36 31.2,74.34 74.32,139.01 129.31,194.01 55.02,55.02 119.69,98.11 194.01,129.34 74.35,31.22 153.14,46.82 236.39,46.82l602.07 0zm1962.59 -1605.55l0 396.92 -200.69 0c-83.23,0 -161.28,15.63 -234.14,46.85 -72.84,31.2 -136.77,74.32 -191.77,129.32 -55.01,55.02 -98.11,118.94 -129.33,191.78 -31.23,72.84 -46.83,150.89 -46.83,234.15l0 1003.45 -401.39 0 0 -1003.45c0,-139.76 26.01,-269.84 78.05,-390.24 52.03,-120.43 124.13,-225.97 216.29,-316.66 92.17,-90.68 199.22,-162.04 321.13,-214.07 121.88,-52.04 251.22,-78.05 387.99,-78.05l200.69 0z"/>
   <path class="fil2" d="M24013.52 10316.07c-19,-27.83 -27.71,-100.78 -28.06,-141.16 -1.38,-159.2 97.63,-320.06 212.58,-417.87 88.54,-75.33 251,-176.55 365.9,-178.24 24.69,113.4 40.73,156.09 31.46,286.41 -6.53,91.78 -27.81,183.05 -61.4,258.67 -17.3,38.94 -36.15,73.4 -57.65,104.14 -19.18,27.42 -48.54,62.36 -73.54,84.52 -49.6,43.96 -131.19,90.84 -223.6,96.29l52.13 -113.79 -165.82 -85.16 -52 106.19zm-5848.18 1062.43l-126.3 145.17c7.93,10.84 24.98,24.81 36.09,35 97.27,89.15 158.11,149.04 269.68,236.01 53.92,42.04 107.76,83.53 164.77,124.3 1524.75,1090.35 3626.44,904.59 4930.91,-463.74 216.03,-226.6 423.96,-504.11 564.08,-732.36l107.39 -185.02c154.3,-3.66 240.53,-27.4 341.2,-102.63 253.07,-189.11 331.65,-609.43 226.43,-908.77 -9.67,-27.52 -24.39,-55.89 -31.63,-81.11 -211.09,3.64 -363.62,83.48 -489.6,179.12 -243.03,184.51 -390.26,500.59 -235.68,803.42 17.01,33.32 21.74,20.7 2.71,54.12 -259.62,455.98 -601.17,851.15 -1009.47,1180.31 -224.73,181.15 -467.09,329.96 -770.43,462.96 -1266.54,555.29 -2593.52,343.82 -3668.02,-473.54 -111.12,-84.52 -210.18,-178.9 -312.13,-273.24z"/>
  </g>

</svg>
