<?xml version="1.0" encoding="utf-8"?>
<!-- Generator: Adobe Illustrator 19.1.0, SVG Export Plug-In . SVG Version: 6.00 Build 0)  -->
<svg version="1.1" xmlns="http://www.w3.org/2000/svg" xmlns:xlink="http://www.w3.org/1999/xlink" x="0px" y="0px"
	 viewBox="0 0 231.6 84.1" style="enable-background:new 0 0 231.6 84.1;" xml:space="preserve">
<style type="text/css">
	.st0{fill:#93D2EC;}
	.st1{clip-path:url(#SVGID_2_);}
	.st2{fill:#F5F5F5;}
	.st3{fill:#008FBE;}
	.st4{fill:#E3E3E7;}
	.st5{fill:#0090BC;stroke:#0090BC;stroke-width:0.8622;stroke-miterlimit:10;}
	.st6{fill:#FFFFFF;}
	.st7{fill:#0090BC;}
	.st8{fill:none;stroke:#FFFFFF;stroke-width:0.4311;stroke-miterlimit:10;}
	.st9{opacity:0.1;fill:url(#SVGID_3_);}
	.st10{opacity:0.1;fill:url(#SVGID_4_);}
	.st11{clip-path:url(#SVGID_6_);}
	.st12{fill:url(#SVGID_7_);}
	.st13{opacity:0.5;fill:#001219;}
	.st14{fill:url(#SVGID_8_);}
	.st15{fill:#ECECEB;}
	.st16{clip-path:url(#SVGID_10_);fill:url(#SVGID_11_);}
	.st17{clip-path:url(#SVGID_13_);fill:url(#SVGID_14_);}
	.st18{fill:none;stroke:#008FBE;stroke-miterlimit:10;}
	.st19{fill:#CAE9F1;}
	.st20{fill:#E5F3F8;}
	.st21{fill:url(#SVGID_15_);}
	.st22{fill:url(#SVGID_16_);}
	.st23{fill:url(#SVGID_17_);}
	.st24{fill:#3D3D3D;}
	.st25{clip-path:url(#SVGID_21_);}
	.st26{clip-path:url(#SVGID_25_);fill:#ECECEB;}
	.st27{clip-path:url(#SVGID_27_);}
	.st28{clip-path:url(#SVGID_31_);}
	.st29{fill:#008EBB;}
	.st30{fill:none;}
	.st31{opacity:0.6;fill:#3D3D3D;}
	.st32{fill:#E9F3F7;}
	.st33{fill:none;stroke:#FFFFFF;stroke-miterlimit:10;}
	.st34{opacity:0.4;}
	.st35{fill:#343434;}
	.st36{fill:#A2A2A2;}
	.st37{clip-path:url(#SVGID_37_);}
	.st38{clip-path:url(#SVGID_41_);}
	.st39{clip-path:url(#SVGID_45_);}
	.st40{fill:#F6F6F6;}
	.st41{fill:#00A09A;}
	.st42{fill:#20AB6C;}
	.st43{fill:none;stroke:#3D3D3D;stroke-width:0.6439;stroke-miterlimit:10;}
	.st44{fill:#BBDCEA;}
	.st45{fill:#77BBD6;}
	.st46{fill:#BBE4DE;}
	.st47{fill:#76C8C0;}
	.st48{fill:#C0E8CF;}
	.st49{fill:#82CFA3;}
	.st50{opacity:0.2;fill:#008EBB;}
	.st51{fill:#F4F4F4;}
	.st52{fill:#5B5B5B;}
	.st53{clip-path:url(#SVGID_49_);fill:#FFFFFF;}
	.st54{clip-path:url(#SVGID_49_);fill:#231F20;}
	.st55{fill:#0090BC;stroke:#0090BC;stroke-width:1.7132;stroke-miterlimit:10;}
	.st56{fill:none;stroke:#FFFFFF;stroke-width:0.8566;stroke-miterlimit:10;}
	.st57{opacity:0.1;fill:url(#SVGID_50_);}
	.st58{opacity:0.1;fill:url(#SVGID_51_);}
	.st59{fill:url(#SVGID_54_);}
	.st60{fill:#AEDDEB;}
	.st61{fill:#45BCD8;}
	.st62{fill:#00A19B;}
	.st63{fill:#00AD68;}
	.st64{fill:#A8E5DF;}
	.st65{fill:#2DC9C1;}
	.st66{fill:#AEE9CF;}
	.st67{fill:#47D1A2;}
	.st68{fill:none;stroke:#FFFFFF;stroke-width:0.879;stroke-miterlimit:10;}
	.st69{opacity:0.2;fill:#008FBE;}
	.st70{fill:#808080;}
	.st71{clip-path:url(#SVGID_58_);fill:#FFFFFF;}
	.st72{clip-path:url(#SVGID_58_);fill:#231F20;}
	.st73{clip-path:url(#SVGID_60_);}
	.st74{clip-path:url(#SVGID_64_);}
	.st75{fill:#A5A5A5;}
	.st76{fill:#999999;}
</style>
<g id="Layer_1">
	<path class="st31" d="M80.5,42.2c1.5-1.8,2.7-4,3.3-6.4l-5.4-1.4c-0.4,1.6-1.2,3-2.2,4.2c-1.6-0.9-3.5-1.6-5.5-1.9
		c-0.9-0.1-1.8-0.2-2.6-0.2c-2.7,0-5.3,0.7-7.5,1.9c0.1,0.1,0.2,0.2,0.2,0.3c-0.1-0.1-0.2-0.2-0.2-0.3h0c-0.4-0.5-0.8-1.1-1.1-1.7
		c-0.8-1.5-1.3-3-1.3-4.6c0,0,0,0,0,0c2.1-0.5,4.1-1.5,5.9-2.9c2.7-2.1,4.5-4.7,5.5-7.7c0.7,0.1,1.3,0.2,2,0.4l1.7-5.3
		c-1-0.3-1.9-0.5-2.9-0.6c-0.1-1.2-0.3-2.5-0.6-3.7l-5.4,1.5c0.2,0.8,0.4,1.7,0.4,2.5c0.1,0,0.3,0,0.4-0.1c-0.1,0-0.3,0-0.4,0.1
		c0,1.1-0.1,2.1-0.4,3.1c0.3-1,0.4-2.1,0.4-3.1c-3.3,0.8-6.2,2.6-8.5,5.4c-1.3,1.6-2.3,3.4-2.9,5.2c0.4,0,0.7,0.1,1.1,0.1h0
		c-0.4,0-0.7,0-1.1-0.1c-0.1,0.5-0.3,0.9-0.4,1.4c0.1-0.5,0.2-0.9,0.4-1.4c-1.4-0.2-2.8-0.6-4.2-1.4c-0.4-0.3-0.9-0.5-1.2-0.9h0
		c1.5-2.8,2-6,1.6-9.4c-0.3-2.3-1-4.4-2.1-6.2c1.3-1.2,2.9-2,4.7-2.4l-1.2-5.5C48,1.8,45.5,3,43.6,4.8h0c-1.4,1.3-2.6,2.8-3.4,4.5
		c2,1.6,3.4,4,3.7,6.7l-3.3,8.9c1,1.6,2.2,3,3.7,4.2h0c0.6,0.5,1.2,0.9,1.8,1.3c2,1.2,4.1,1.9,6.3,2.2c0.1,2.3,0.8,4.7,2,6.9
		c0.5,0.9,1.1,1.7,1.7,2.5c0,0,0,0,0,0h0c-0.6,0.7-1.2,1.5-1.7,2.3c-1.4,2.3-2.1,4.9-2.3,7.4c0.7-0.1,1.4-0.1,2-0.1h0
		c-0.7,0-1.4,0-2,0.1c0,0.9,0,1.8,0.1,2.7c-0.1-0.9-0.2-1.8-0.1-2.7c-2.1,0.3-4.2,1-6.1,2.1c-0.6,0.3-1.1,0.7-1.6,1.1
		c0.1,0.1,0.3,0.3,0.4,0.4c-0.1-0.1-0.3-0.3-0.4-0.4h0c-1-0.9-2-1.7-3.2-2.3c-2.2-1.2-4.5-1.9-6.9-2c-0.3-2.1-1-4.3-2.2-6.2
		c-0.4-0.7-0.9-1.4-1.5-2.1h0c0.7-0.8,1.3-1.7,1.9-2.7c1.1-2,1.8-4.1,2-6.2c-0.3,0-0.6,0-0.8,0c0.3,0,0.6,0,0.8,0
		c2.2-0.2,4.5-0.8,6.6-2c1.1-0.6,2.1-1.3,3-2.1c-1.5-1.2-2.8-2.6-3.7-4.2c-0.6,0.5-1.3,1-2,1.4c-1.4,0.8-2.9,1.2-4.3,1.3
		c-0.2,0-0.5,0-0.7,0c0.2,0,0.5,0,0.7,0c-0.6-2.1-1.6-4.1-3.1-5.9c-2.1-2.6-4.8-4.4-7.8-5.2h0c0.1-0.7,0.2-1.5,0.5-2.3l-5.3-1.7
		c-0.4,1.1-0.6,2.3-0.7,3.4h0c-1.2,0.1-2.4,0.3-3.7,0.7l1.7,5.3c0.8-0.3,1.6-0.4,2.4-0.5c-0.4-1.3-0.5-2.7-0.5-4.2
		c0,1.4,0.2,2.8,0.5,4.2c0.1,0,0.3,0,0.4,0c-0.1,0-0.3,0-0.4,0c0.8,3.1,2.6,5.9,5.3,8.1c1.7,1.4,3.6,2.4,5.6,3
		c-0.1,1.4-0.6,2.8-1.3,4.1c-0.4,0.7-0.8,1.3-1.3,1.8c0.1,0.1,0.2,0.1,0.3,0.2c-0.1-0.1-0.2-0.1-0.3-0.2c-0.2,0.2-0.3,0.4-0.5,0.5
		c0.2-0.2,0.4-0.4,0.5-0.5c-2.3-1.3-5-2.1-7.8-2.1c-0.9,0-1.7,0.1-2.6,0.2c-1.9,0.3-3.6,0.9-5.2,1.7c-0.9-1.1-1.7-2.5-2.1-4.1
		l-5.4,1.4c0.6,2.3,1.7,4.4,3.1,6.2h0c-1.7,1.9-2.9,4.3-3.5,6.9l5.5,1.2c0.4-1.7,1.2-3.3,2.3-4.5h0c0,0,0,0,0,0c1.8,1,3.8,1.7,6,2
		c0.7,0.1,1.4,0.1,2.1,0.1c2.7,0,5.3-0.7,7.6-1.9c0.4,0.4,0.7,0.9,1,1.4c0.8,1.3,1.2,2.7,1.4,4.1c1.2-0.4,2.4-0.6,3.7-0.7
		c-1.2,0.1-2.5,0.3-3.7,0.7c0.2,1.6,0,3.2-0.6,4.8c0.6-1.5,0.8-3.2,0.6-4.8c-1.9,0.6-3.7,1.6-5.3,2.9c-2.8,2.3-4.6,5.2-5.4,8.5h0
		c-0.2,1-0.4,2.1-0.4,3.1c0-1.1,0.2-2.1,0.4-3.1c-0.8,0-1.6-0.2-2.3-0.4l-1.5,5.4c1.2,0.3,2.4,0.5,3.6,0.6h0c0.1,1,0.3,2,0.7,3
		l5.3-1.7c-0.2-0.7-0.4-1.3-0.4-2c-1.4,0.4-2.8,0.7-4.3,0.7c1.5,0,2.9-0.3,4.3-0.7c-0.1-0.9-0.1-1.9,0.1-2.8
		c-0.1,0.9-0.2,1.8-0.1,2.8c3-0.9,5.7-2.8,7.8-5.5c1.4-1.8,2.4-3.8,2.9-5.9c-0.2,0-0.4,0-0.6,0h0c0.2,0,0.4,0,0.6,0h0
		c1.5,0.1,3.1,0.5,4.5,1.3c0.8,0.4,1.5,1,2.1,1.6c-2,3.2-2.8,7-2.2,11c0.3,1.6,0.7,3.2,1.4,4.6h0c0.4,0.9,0.9,1.7,1.5,2.4
		c-0.6-0.8-1-1.6-1.5-2.4c-1.1,0.8-2.4,1.5-3.8,1.8l1.4,5.4c2.1-0.5,4-1.5,5.7-2.7c0,0,0,0,0,0c0,0,0,0,0,0c2,1.9,4.5,3.2,7.4,3.9
		l1.2-5.5c-1.9-0.4-3.6-1.3-4.9-2.6c1.2-1.9,2-4.1,2.3-6.5c0.4-3.2-0.1-6.4-1.5-9.1c-0.2-0.3-0.3-0.6-0.5-1c0.2,0.3,0.4,0.6,0.5,1
		c0.3-0.3,0.7-0.5,1.1-0.7c1.3-0.8,2.6-1.2,4-1.4h0c0.6,1.7,1.4,3.3,2.6,4.8c2.3,3,5.5,5,9,5.8h0c0,0.8-0.2,1.7-0.4,2.5l5.4,1.5
		c0.4-1.3,0.6-2.5,0.6-3.8h0c0.1-1.6-0.1-3.2-0.5-4.7c0.4,1.5,0.6,3.1,0.5,4.7c0.8-0.1,1.6-0.3,2.4-0.5l-1.5-5.4
		c-0.5,0.1-1.1,0.3-1.6,0.3l0,0h0c-1-2.9-2.8-5.6-5.5-7.6c-1.9-1.4-3.9-2.4-6.1-3h0h0c-0.4-0.1-0.8-0.1-1.2-0.2
		c0.4,0.1,0.8,0.1,1.2,0.2c0.1-1.7,0.6-3.3,1.5-4.9c0.3-0.6,0.7-1.1,1.1-1.5c2.3,1.3,5,2.1,7.8,2.1c0.7,0,1.4,0,2.1-0.1
		c2.1-0.3,4-0.9,5.7-1.8h0C77.8,44.8,79.3,43.6,80.5,42.2 M68.2,21.5L68.2,21.5c0.3,0,0.5,0,0.8,0C68.8,21.5,68.5,21.5,68.2,21.5z
		 M68.2,15.9c0.7,0,1.4,0,2,0.1c0.1,1.9-0.2,3.8-0.7,5.5h0c0.6-1.8,0.8-3.6,0.7-5.5C69.5,15.9,68.9,15.9,68.2,15.9L68.2,15.9z
		 M59.3,26.9c-0.6,1.1-1,2.3-1.2,3.5C58.3,29.1,58.7,28,59.3,26.9z M43.8,5c1,0.8,2,1.8,2.8,2.9C45.7,6.8,44.8,5.8,43.8,5z
		 M52.5,32.5L52.5,32.5c0-0.6,0-1.3,0-1.9C52.4,31.3,52.4,31.9,52.5,32.5z M19.1,15.9c-0.2,0-0.4,0-0.5,0
		C18.7,15.9,18.9,15.9,19.1,15.9c0.9,0,1.8,0.1,2.7,0.3C20.9,16,20,15.9,19.1,15.9z M26.9,25.3c0,0-0.1-0.1-0.1-0.1
		C26.8,25.2,26.8,25.2,26.9,25.3c0.2,0.2,0.3,0.4,0.4,0.6C27.1,25.7,27,25.5,26.9,25.3z M17,42.2c-1.6,0.3-3.1,0.9-4.4,1.8
		C13.9,43.1,15.4,42.5,17,42.2c0.6-0.1,1.1-0.1,1.7-0.1h0C18.2,42.1,17.6,42.1,17,42.2z M26.5,45.7L26.5,45.7
		c1.4-0.8,2.7-1.8,3.9-3.1C29.3,43.9,28,44.9,26.5,45.7z M18.8,68.2c-0.2,0-0.3,0-0.5,0C18.4,68.2,18.6,68.2,18.8,68.2L18.8,68.2z
		 M26.8,58.6c-2,2.6-4.9,4-8.1,4c-0.1,0-0.3,0-0.4,0c0.1,0,0.3,0,0.4,0C21.8,62.6,24.8,61.2,26.8,58.6c0.6-0.7,1-1.5,1.4-2.3
		C27.8,57.1,27.3,57.8,26.8,58.6z M33.5,50.5L33.5,50.5c0.3,0,0.6,0,0.9,0C34.2,50.5,33.9,50.5,33.5,50.5z M34.4,54.8
		c0.2-1,0.2-2.1,0.2-3.1C34.6,52.7,34.6,53.7,34.4,54.8z M43.9,67.7c-0.1,1-0.4,1.9-0.8,2.8C43.5,69.7,43.7,68.7,43.9,67.7
		c0.4-3.4-0.7-6.5-3.1-8.7C43.1,61.2,44.3,64.4,43.9,67.7z M60.1,58.6c0.3,0.3,0.5,0.6,0.8,0.9C60.6,59.2,60.3,58.9,60.1,58.6
		c-0.8-1-1.4-2.2-1.7-3.4C58.7,56.4,59.3,57.5,60.1,58.6z M59.1,39.3c-0.9,0.7-1.8,1.4-2.6,2.3C57.3,40.7,58.2,39.9,59.1,39.3z
		 M56.5,42.3c1,1.2,2.2,2.2,3.4,3C58.7,44.4,57.5,43.4,56.5,42.3z M60.5,45.6L60.5,45.6c0.1-0.2,0.3-0.3,0.5-0.5
		C60.8,45.2,60.6,45.4,60.5,45.6z M65.9,42.3c0.7-0.2,1.4-0.2,2.2-0.2h0C67.4,42.1,66.6,42.1,65.9,42.3z M75.3,39.4
		c0.3-0.3,0.6-0.5,0.8-0.8h0C75.9,38.9,75.6,39.1,75.3,39.4z M213.4,52.4l2.1-2.2l-1.1-0.5l-1.6,2.3L213.4,52.4z M199.7,32.2h14.1
		l3.9,9.3h4.1L206.9,7l-15.2,34.5h4L199.7,32.2z M206.8,15.8l5.5,13.2h-11.1L206.8,15.8z M40.6,24.9l3.3-8.9
		c-0.4-2.8-1.7-5.1-3.7-6.7c-0.8,1.5-1.3,3.1-1.6,4.9C38,18.1,38.7,21.8,40.6,24.9z M102.5,8.8h-3.8v32.8h3.8V8.8z M107,54.3
		c-0.2-0.2-0.4-0.4-0.6-0.6c-0.3-0.1-0.6-0.2-1-0.2c-0.4,0-0.7,0.1-1,0.3c-0.3,0.2-0.5,0.4-0.7,0.7v-0.7h-1.1v5.7h1.1v-2.7
		c0-0.2,0-0.5,0-0.8c0-0.3,0.1-0.5,0.2-0.7c0.1-0.2,0.2-0.4,0.4-0.5c0.2-0.1,0.5-0.2,0.8-0.2c0.3,0,0.5,0,0.7,0.1
		c0.2,0.1,0.3,0.2,0.4,0.4c0.1,0.2,0.1,0.3,0.2,0.5c0,0.2,0,0.4,0,0.7v3.2h1.1v-3.5c0-0.3,0-0.7-0.1-1
		C107.2,54.8,107.1,54.5,107,54.3z M101.5,73.6l-2.2-4.3h-1.2l2.8,5.4l-2,3.9h1.2l4.5-9.3h-1.2L101.5,73.6z M76.1,45.7
		c1,1.2,1.8,2.7,2.2,4.4l5.5-1.2c-0.6-2.5-1.7-4.8-3.3-6.7C79.3,43.6,77.8,44.8,76.1,45.7z M136,37.2c1.6,1.5,3.4,2.7,5.5,3.6
		c2.1,0.9,4.3,1.3,6.6,1.3c1.7,0,3.5-0.3,5.2-0.8c1.7-0.6,3.2-1.4,4.7-2.4v-4.5c-1.3,1.3-2.8,2.4-4.6,3.2c-1.7,0.8-3.5,1.2-5.4,1.2
		c-1.8,0-3.6-0.4-5.2-1.1c-1.6-0.7-3-1.7-4.3-3c-1.2-1.3-2.2-2.7-2.9-4.4c-0.7-1.6-1-3.4-1-5.2c0-1.8,0.3-3.5,1-5.2
		c0.7-1.6,1.6-3.1,2.8-4.4c1.2-1.3,2.6-2.2,4.2-3c1.6-0.7,3.3-1.1,5.2-1.1c1.9,0,3.7,0.4,5.5,1.2c1.7,0.8,3.3,1.9,4.6,3.3v-4.5
		c-2.9-2.1-6.2-3.2-9.8-3.2c-2.4,0-4.6,0.5-6.7,1.3c-2.1,0.9-3.9,2.1-5.5,3.7c-1.6,1.5-2.8,3.4-3.8,5.4c-0.9,2.1-1.4,4.3-1.4,6.6
		c0,2.3,0.5,4.5,1.4,6.5C133.2,33.9,134.5,35.6,136,37.2z M112.8,27.3h0.9l9.9,14.2h4.5l-10.5-14.7c2.6-0.2,4.6-1.2,6.1-2.8
		c1.5-1.6,2.2-3.7,2.2-6.2c0-1.8-0.3-3.4-1-4.5c-0.7-1.2-1.6-2.1-2.7-2.8c-1.1-0.7-2.4-1.1-3.9-1.4c-1.4-0.2-3-0.4-4.5-0.4H109v32.8
		h3.8V27.3z M112.8,12.1h1.1c1.1,0,2.1,0.1,3.1,0.2c1,0.1,1.8,0.4,2.6,0.8c0.7,0.4,1.4,1,1.8,1.8c0.5,0.8,0.7,1.9,0.7,3.3
		c0,1.3-0.2,2.3-0.7,3.1c-0.5,0.8-1.1,1.4-1.9,1.8c-0.8,0.4-1.6,0.7-2.6,0.8c-1,0.1-2,0.2-3,0.2h-1.1V12.1z M43.6,4.8
		c-1.7-1.3-3.7-2.3-5.9-2.9l-1.4,5.4c1.5,0.4,2.8,1,3.9,1.9C41,7.6,42.2,6.1,43.6,4.8z M167.2,37.2c1.6,1.5,3.4,2.7,5.5,3.6
		c2.1,0.9,4.3,1.3,6.6,1.3c1.7,0,3.5-0.3,5.1-0.8c1.7-0.6,3.2-1.4,4.7-2.4v-4.5c-1.3,1.3-2.8,2.4-4.6,3.2c-1.7,0.8-3.5,1.2-5.4,1.2
		c-1.8,0-3.6-0.4-5.2-1.1c-1.6-0.7-3-1.7-4.3-3c-1.2-1.3-2.2-2.7-2.9-4.4c-0.7-1.6-1.1-3.4-1.1-5.2c0-1.8,0.4-3.5,1.1-5.2
		c0.7-1.6,1.6-3.1,2.8-4.4c1.2-1.3,2.6-2.2,4.2-3c1.6-0.7,3.3-1.1,5.2-1.1c1.9,0,3.7,0.4,5.5,1.2c1.7,0.8,3.2,1.9,4.6,3.3v-4.5
		c-2.9-2.1-6.2-3.2-9.8-3.2c-2.4,0-4.6,0.5-6.7,1.3c-2.1,0.9-3.9,2.1-5.5,3.7c-1.6,1.5-2.8,3.4-3.8,5.4c-0.9,2.1-1.4,4.3-1.4,6.6
		c0,2.3,0.5,4.5,1.4,6.5C164.3,33.9,165.6,35.6,167.2,37.2z M207.8,59.5h1.1v-6h-1.1V59.5z M208.7,50.4c-0.1-0.1-0.2-0.2-0.4-0.2
		c-0.2,0-0.3,0.1-0.4,0.2c-0.1,0.1-0.2,0.2-0.2,0.4c0,0.2,0,0.3,0.2,0.4c0.1,0.1,0.2,0.2,0.4,0.2c0.1,0,0.3,0,0.4-0.2
		c0.1-0.1,0.2-0.2,0.2-0.4C208.9,50.7,208.8,50.5,208.7,50.4z M100.3,59.5v-9.8h-1.1v9.8H100.3z M199.6,59.4v-5.8h-1.1l0.1,0.9h-0.1
		c-0.2-0.3-0.5-0.5-0.9-0.7c-0.4-0.2-0.7-0.3-1.1-0.3c-0.4,0-0.9,0.1-1.2,0.2c-0.4,0.2-0.7,0.4-0.9,0.6c-0.2,0.3-0.4,0.6-0.6,1
		c-0.1,0.4-0.2,0.8-0.2,1.2c0,0.4,0.1,0.8,0.2,1.1c0.1,0.4,0.3,0.7,0.6,1c0.3,0.3,0.5,0.5,0.9,0.7c0.4,0.2,0.8,0.2,1.2,0.2
		c0.8,0,1.5-0.3,2.1-0.9v0.9H199.6z M198.4,57.2c-0.1,0.2-0.2,0.4-0.4,0.6c-0.2,0.2-0.4,0.3-0.6,0.4c-0.2,0.1-0.5,0.2-0.8,0.2
		s-0.6,0-0.8-0.2c-0.2-0.1-0.4-0.3-0.6-0.4c-0.2-0.2-0.3-0.4-0.4-0.6c-0.1-0.2-0.1-0.5-0.1-0.7c0-0.2,0-0.5,0.1-0.7
		c0.1-0.2,0.2-0.4,0.4-0.6c0.2-0.2,0.4-0.3,0.6-0.4c0.2-0.1,0.5-0.2,0.8-0.2c0.3,0,0.6,0,0.8,0.2c0.2,0.1,0.4,0.2,0.6,0.4
		c0.2,0.2,0.3,0.4,0.4,0.6c0.1,0.2,0.1,0.5,0.1,0.7C198.5,56.8,198.5,57,198.4,57.2z M188.8,70.3L188.8,70.3c-0.3-0.3-0.6-0.5-1-0.7
		c-0.4-0.2-0.7-0.3-1.1-0.3c-0.5,0-0.9,0.1-1.2,0.2c-0.4,0.2-0.7,0.4-0.9,0.6c-0.2,0.3-0.4,0.6-0.6,1c-0.1,0.4-0.2,0.7-0.2,1.1
		c0,0.4,0.1,0.8,0.2,1.1c0.1,0.4,0.3,0.7,0.6,1c0.2,0.3,0.5,0.5,0.9,0.7c0.3,0.2,0.7,0.2,1.2,0.2c0.8,0,1.5-0.3,2.1-0.9v0.9h1.1
		v-5.8h-1.1L188.8,70.3z M188.6,73.1c-0.1,0.2-0.2,0.4-0.4,0.6c-0.2,0.2-0.4,0.3-0.6,0.4c-0.2,0.1-0.5,0.1-0.8,0.1
		c-0.3,0-0.6,0-0.8-0.2c-0.2-0.1-0.4-0.3-0.6-0.4c-0.2-0.2-0.3-0.4-0.4-0.6c-0.1-0.2-0.1-0.5-0.1-0.7c0-0.2,0-0.5,0.1-0.7
		c0.1-0.2,0.2-0.4,0.4-0.6c0.2-0.2,0.4-0.3,0.6-0.4c0.2-0.1,0.5-0.2,0.8-0.2c0.3,0,0.6,0,0.8,0.2c0.2,0.1,0.4,0.2,0.6,0.4
		c0.2,0.2,0.3,0.4,0.4,0.6c0.1,0.2,0.1,0.5,0.1,0.7C188.7,72.6,188.6,72.8,188.6,73.1z M188.7,56.7c0,0.2,0,0.5,0,0.7
		c0,0.2-0.1,0.4-0.2,0.6c-0.1,0.2-0.2,0.3-0.4,0.4c-0.2,0.1-0.4,0.1-0.7,0.1c-0.3,0-0.6,0-0.7-0.1c-0.2-0.1-0.3-0.2-0.4-0.4
		c-0.1-0.2-0.2-0.3-0.2-0.6c0-0.2,0-0.4,0-0.7v-3.1h-1.1v3.4c0,0.4,0,0.7,0.1,1.1c0.1,0.3,0.2,0.6,0.4,0.8c0.2,0.2,0.5,0.4,0.8,0.5
		c0.3,0.1,0.7,0.2,1.2,0.2c0.5,0,0.8-0.1,1.1-0.2c0.3-0.1,0.6-0.3,0.8-0.5c0.2-0.2,0.3-0.5,0.4-0.8c0.1-0.3,0.1-0.7,0.1-1.1v-3.4
		h-1.1V56.7z M196.5,70.1c-0.2-0.2-0.4-0.4-0.6-0.6c-0.3-0.1-0.6-0.2-1-0.2c-0.4,0-0.7,0.1-1,0.3c-0.3,0.2-0.5,0.4-0.7,0.8v-0.7H192
		v5.7h1.1v-2.7c0-0.2,0-0.5,0-0.8c0-0.3,0.1-0.5,0.2-0.7c0.1-0.2,0.2-0.4,0.4-0.5c0.2-0.1,0.5-0.2,0.8-0.2c0.3,0,0.5,0,0.7,0.1
		c0.2,0.1,0.3,0.2,0.4,0.4c0.1,0.2,0.1,0.3,0.2,0.5c0,0.2,0,0.4,0,0.7v3.2h1.1v-3.5c0-0.3,0-0.7-0.1-1
		C196.7,70.6,196.6,70.4,196.5,70.1z M192.5,48.6h-1.1v10.9h1.1V48.6z M168.5,75.4h1.1V64.5h-1.1V75.4z M176,57.7l-0.9-0.5
		c-0.2,0.4-0.5,0.7-0.8,0.9c-0.3,0.2-0.7,0.4-1.1,0.4c-0.3,0-0.6,0-0.8-0.1c-0.2-0.1-0.5-0.2-0.6-0.3c-0.2-0.1-0.3-0.3-0.4-0.5
		c-0.1-0.2-0.2-0.4-0.2-0.6h4.8c0-0.4,0-0.8-0.1-1.2c-0.1-0.4-0.3-0.7-0.5-1.1c-0.3-0.3-0.6-0.5-0.9-0.7c-0.4-0.2-0.8-0.3-1.3-0.3
		c-0.5,0-0.9,0.1-1.3,0.2c-0.4,0.2-0.7,0.4-0.9,0.7c-0.3,0.3-0.5,0.6-0.6,1c-0.1,0.4-0.2,0.8-0.2,1.2c0,0.4,0.1,0.8,0.2,1.1
		c0.1,0.4,0.3,0.7,0.6,0.9c0.3,0.3,0.6,0.5,1,0.6c0.4,0.2,0.8,0.2,1.3,0.2c0.6,0,1.2-0.2,1.7-0.5C175.3,58.7,175.7,58.3,176,57.7z
		 M171.4,55.3c0.1-0.1,0.3-0.2,0.4-0.4c0.2-0.1,0.4-0.2,0.6-0.2c0.2-0.1,0.4-0.1,0.7-0.1c0.2,0,0.4,0,0.6,0.1
		c0.2,0.1,0.4,0.1,0.5,0.2c0.2,0.1,0.3,0.2,0.4,0.4c0.1,0.1,0.2,0.3,0.2,0.4h-3.7C171.2,55.6,171.3,55.4,171.4,55.3z M181.6,54.4
		L181.6,54.4c-0.3-0.3-0.6-0.6-0.9-0.7c-0.3-0.1-0.7-0.2-1.1-0.2c-0.4,0-0.8,0.1-1.2,0.2c-0.4,0.2-0.7,0.4-0.9,0.7
		c-0.3,0.3-0.4,0.6-0.6,1c-0.1,0.4-0.2,0.7-0.2,1.1c0,0.4,0.1,0.8,0.2,1.1c0.1,0.4,0.3,0.7,0.6,0.9c0.2,0.3,0.5,0.5,0.9,0.7
		c0.4,0.2,0.8,0.2,1.2,0.2c0.4,0,0.8-0.1,1.2-0.2c0.4-0.1,0.6-0.3,0.9-0.6v0.6c0,0.3,0,0.6-0.1,0.9c0,0.3-0.2,0.5-0.3,0.7
		c-0.1,0.2-0.3,0.4-0.6,0.5c-0.3,0.1-0.6,0.2-1,0.2c-0.5,0-1-0.2-1.4-0.5c-0.4-0.3-0.5-0.8-0.5-1.4h-1.1c0,0.4,0.1,0.8,0.2,1.2
		c0.1,0.3,0.4,0.6,0.6,0.9c0.3,0.3,0.6,0.5,0.9,0.6c0.4,0.1,0.8,0.2,1.2,0.2c0.5,0,0.9-0.1,1.3-0.3c0.4-0.2,0.8-0.4,1.1-0.8
		c0.2-0.2,0.3-0.4,0.3-0.6c0.1-0.2,0.1-0.4,0.2-0.6c0-0.2,0.1-0.4,0.1-0.6c0-0.2,0-0.5,0-0.7v-5.7h-1.1V54.4z M181.5,57.2
		c-0.1,0.2-0.2,0.4-0.4,0.6c-0.2,0.2-0.4,0.3-0.6,0.4c-0.2,0.1-0.5,0.2-0.8,0.2c-0.3,0-0.6,0-0.8-0.2c-0.2-0.1-0.4-0.3-0.6-0.4
		c-0.2-0.2-0.3-0.4-0.4-0.6c-0.1-0.2-0.1-0.5-0.1-0.7c0-0.2,0-0.5,0.1-0.7c0.1-0.2,0.2-0.4,0.4-0.6c0.2-0.2,0.4-0.3,0.6-0.4
		c0.2-0.1,0.5-0.2,0.8-0.2c0.3,0,0.6,0,0.8,0.2c0.2,0.1,0.4,0.2,0.6,0.4c0.2,0.2,0.3,0.4,0.4,0.6c0.1,0.2,0.1,0.5,0.1,0.7
		C181.6,56.8,181.5,57,181.5,57.2z M177.6,65.9c-0.6,0.3-1.2,0.6-1.6,1.1c-0.5,0.5-0.8,1-1.1,1.6c-0.3,0.6-0.4,1.2-0.4,1.9
		c0,0.7,0.1,1.3,0.4,1.9c0.3,0.6,0.6,1.1,1.1,1.6c0.5,0.4,1,0.8,1.6,1c0.6,0.3,1.3,0.4,2,0.4c0.5,0,1-0.1,1.5-0.2
		c0.5-0.2,1-0.4,1.4-0.7v-1.3c-0.4,0.3-0.9,0.6-1.4,0.8c-0.5,0.2-1.1,0.3-1.6,0.3c-0.6,0-1.1-0.1-1.6-0.3c-0.5-0.2-0.9-0.5-1.3-0.8
		c-0.4-0.4-0.7-0.8-0.9-1.2c-0.2-0.5-0.3-0.9-0.3-1.4c0-0.5,0.1-1,0.3-1.5c0.2-0.5,0.5-0.9,0.9-1.2c0.4-0.3,0.8-0.6,1.3-0.8
		c0.5-0.2,1-0.3,1.6-0.3c0.6,0,1.1,0.1,1.6,0.3c0.5,0.2,1,0.5,1.4,0.8v-1.3c-0.9-0.6-1.9-0.9-3-0.9
		C178.9,65.5,178.3,65.7,177.6,65.9z M206.5,57.7L206.5,57.7c-0.3,0.2-0.6,0.4-0.9,0.6c-0.3,0.1-0.7,0.2-1.2,0.2
		c-0.3,0-0.6,0-0.9-0.2c-0.3-0.1-0.5-0.2-0.7-0.4c-0.2-0.2-0.3-0.4-0.4-0.6c-0.1-0.2-0.2-0.5-0.2-0.7c0-0.3,0-0.5,0.2-0.7
		c0.1-0.2,0.3-0.4,0.4-0.6c0.2-0.2,0.4-0.3,0.7-0.4c0.3-0.1,0.6-0.2,0.9-0.2c0.4,0,0.8,0.1,1.1,0.2c0.3,0.1,0.6,0.3,0.8,0.5h0v-1.3
		c-0.3-0.2-0.6-0.3-0.9-0.4c-0.3-0.1-0.7-0.1-1-0.1c-0.5,0-0.9,0.1-1.3,0.2c-0.4,0.2-0.8,0.4-1.1,0.6c-0.3,0.3-0.5,0.6-0.7,1
		c-0.2,0.4-0.3,0.8-0.3,1.2c0,0.4,0.1,0.8,0.2,1.2c0.2,0.4,0.4,0.7,0.7,1c0.3,0.3,0.7,0.5,1,0.6c0.4,0.2,0.8,0.2,1.3,0.2
		c0.4,0,0.7,0,1-0.1c0.3-0.1,0.6-0.2,0.9-0.4V57.7z M221.4,75.4h1.1v-6h-1.1V75.4z M222,66.1c-0.2,0-0.3,0.1-0.4,0.2
		c-0.1,0.1-0.2,0.2-0.2,0.4c0,0.2,0,0.3,0.2,0.4c0.1,0.1,0.2,0.2,0.4,0.2c0.1,0,0.3,0,0.4-0.2c0.1-0.1,0.2-0.2,0.2-0.4
		c0-0.1-0.1-0.3-0.2-0.4C222.2,66.1,222.1,66.1,222,66.1z M222.7,54.3c-0.2-0.2-0.4-0.4-0.6-0.6c-0.3-0.1-0.6-0.2-1-0.2
		c-0.4,0-0.7,0.1-1,0.3c-0.3,0.2-0.5,0.4-0.7,0.7v-0.7h-1.1v5.7h1.1v-2.7c0-0.2,0-0.5,0-0.8c0-0.3,0.1-0.5,0.2-0.7
		c0.1-0.2,0.2-0.4,0.4-0.5c0.2-0.1,0.5-0.2,0.8-0.2c0.3,0,0.5,0,0.7,0.1c0.2,0.1,0.3,0.2,0.4,0.4c0.1,0.2,0.1,0.3,0.2,0.5
		c0,0.2,0,0.4,0,0.7v3.2h1.1v-3.5c0-0.3,0-0.7-0.1-1C222.9,54.8,222.8,54.5,222.7,54.3z M228.4,73c-0.1-0.2-0.2-0.3-0.3-0.4
		c-0.1-0.1-0.3-0.2-0.4-0.3c-0.2-0.1-0.3-0.2-0.5-0.2c-0.2-0.1-0.3-0.1-0.5-0.2c-0.2-0.1-0.3-0.1-0.4-0.2c-0.1-0.1-0.2-0.2-0.3-0.2
		c-0.1-0.1-0.1-0.2-0.1-0.3c0-0.2,0.1-0.3,0.2-0.4c0.2-0.1,0.3-0.2,0.5-0.2c0.2,0,0.4,0.1,0.5,0.2c0.1,0.1,0.3,0.3,0.3,0.4l0.9-0.5
		c-0.1-0.3-0.4-0.6-0.7-0.9c-0.3-0.2-0.6-0.4-1-0.4c-0.3,0-0.5,0-0.7,0.1c-0.2,0.1-0.4,0.2-0.6,0.3c-0.2,0.1-0.3,0.3-0.4,0.5
		c-0.1,0.2-0.2,0.4-0.2,0.6c0,0.3,0.1,0.5,0.2,0.7c0.1,0.2,0.3,0.3,0.5,0.4c0.2,0.1,0.4,0.2,0.7,0.3c0.2,0.1,0.5,0.2,0.7,0.3
		c0.2,0.1,0.4,0.2,0.5,0.3c0.1,0.1,0.2,0.3,0.2,0.5c0,0.2-0.1,0.5-0.3,0.6c-0.2,0.2-0.4,0.2-0.7,0.2c-0.4,0-0.6-0.1-0.8-0.3
		c-0.2-0.2-0.3-0.4-0.5-0.7l-0.9,0.4c0.2,0.5,0.4,0.9,0.8,1.2c0.4,0.3,0.8,0.5,1.4,0.5c0.3,0,0.5,0,0.8-0.1c0.2-0.1,0.5-0.2,0.7-0.4
		c0.2-0.2,0.4-0.3,0.5-0.6c0.1-0.2,0.2-0.5,0.2-0.7C228.5,73.4,228.5,73.2,228.4,73z M210.6,70.3L210.6,70.3c-0.3-0.3-0.6-0.5-1-0.7
		c-0.4-0.2-0.7-0.3-1.1-0.3c-0.5,0-0.9,0.1-1.2,0.2c-0.4,0.2-0.7,0.4-0.9,0.6c-0.2,0.3-0.4,0.6-0.6,1c-0.1,0.4-0.2,0.7-0.2,1.1
		c0,0.4,0.1,0.8,0.2,1.1c0.1,0.4,0.3,0.7,0.6,1c0.2,0.3,0.5,0.5,0.9,0.7c0.4,0.2,0.8,0.2,1.2,0.2c0.8,0,1.5-0.3,2.1-0.9v0.9h1.1
		v-5.8h-1.1L210.6,70.3z M210.4,73.1c-0.1,0.2-0.2,0.4-0.4,0.6c-0.2,0.2-0.4,0.3-0.6,0.4c-0.2,0.1-0.5,0.1-0.8,0.1
		c-0.3,0-0.6,0-0.8-0.2c-0.2-0.1-0.4-0.3-0.6-0.4c-0.2-0.2-0.3-0.4-0.4-0.6c-0.1-0.2-0.1-0.5-0.1-0.7c0-0.2,0-0.5,0.1-0.7
		c0.1-0.2,0.2-0.4,0.4-0.6c0.2-0.2,0.4-0.3,0.6-0.4c0.2-0.1,0.5-0.2,0.8-0.2c0.3,0,0.6,0,0.8,0.2c0.2,0.1,0.4,0.2,0.6,0.4
		c0.2,0.2,0.3,0.4,0.4,0.6c0.1,0.2,0.1,0.5,0.1,0.7C210.5,72.6,210.5,72.8,210.4,73.1z M203.6,70.1c-0.2-0.2-0.4-0.4-0.6-0.6
		c-0.3-0.1-0.6-0.2-1-0.2c-0.4,0-0.7,0.1-1,0.3c-0.3,0.2-0.5,0.4-0.7,0.7v-0.7h-1.1v5.7h1.1v-2.7c0-0.2,0-0.5,0-0.8
		c0-0.3,0.1-0.5,0.2-0.7c0.1-0.2,0.2-0.4,0.4-0.5c0.2-0.1,0.5-0.2,0.8-0.2c0.3,0,0.5,0,0.7,0.1c0.2,0.1,0.3,0.2,0.4,0.4
		c0.1,0.2,0.1,0.3,0.2,0.5c0,0.2,0,0.4,0,0.7v3.2h1.1v-3.5c0-0.3,0-0.7-0.1-1C203.8,70.6,203.7,70.4,203.6,70.1z M166.1,55.2
		c0.8-0.1,1.3-0.3,1.8-0.8c0.4-0.5,0.6-1.1,0.6-1.9c0-0.6-0.1-1-0.3-1.4c-0.2-0.4-0.5-0.6-0.8-0.8c-0.3-0.2-0.7-0.3-1.1-0.4
		c-0.4-0.1-0.9-0.1-1.3-0.1h-1.4v9.8h1.1v-4.4h0.3l2.9,4.4h1.3L166.1,55.2z M165,54.1h-0.3v-3.3h0.3c0.3,0,0.6,0,0.9,0
		c0.3,0,0.5,0.1,0.8,0.2c0.2,0.1,0.4,0.3,0.5,0.5c0.1,0.2,0.2,0.5,0.2,0.9c0,0.4-0.1,0.6-0.2,0.9c-0.1,0.2-0.3,0.4-0.5,0.5
		c-0.2,0.1-0.5,0.2-0.8,0.2C165.6,54.1,165.3,54.1,165,54.1z M216.1,58.7c0.3-0.3,0.5-0.6,0.7-1c0.2-0.4,0.3-0.7,0.3-1.2
		c0-0.4-0.1-0.8-0.3-1.2c-0.2-0.4-0.4-0.7-0.7-1c-0.3-0.3-0.6-0.5-1-0.6c-0.4-0.2-0.8-0.2-1.3-0.2c-0.5,0-0.9,0.1-1.3,0.2
		c-0.4,0.2-0.8,0.4-1,0.6c-0.3,0.3-0.5,0.6-0.7,1c-0.2,0.4-0.2,0.8-0.2,1.2c0,0.4,0.1,0.8,0.3,1.2c0.2,0.4,0.4,0.7,0.7,1
		c0.3,0.3,0.6,0.5,1,0.6c0.4,0.2,0.8,0.2,1.3,0.2c0.4,0,0.9-0.1,1.3-0.2C215.5,59.2,215.8,59,216.1,58.7z M213.8,58.4
		c-0.3,0-0.6,0-0.9-0.1c-0.3-0.1-0.5-0.2-0.7-0.4c-0.2-0.2-0.3-0.4-0.4-0.6c-0.1-0.2-0.2-0.5-0.2-0.7c0-0.3,0-0.5,0.2-0.7
		c0.1-0.2,0.3-0.4,0.4-0.6c0.2-0.2,0.4-0.3,0.7-0.4c0.3-0.1,0.6-0.2,0.9-0.2c0.3,0,0.6,0,0.9,0.2c0.3,0.1,0.5,0.2,0.7,0.4
		c0.2,0.2,0.3,0.4,0.4,0.6c0.1,0.2,0.2,0.5,0.2,0.7c0,0.3-0.1,0.5-0.2,0.7c-0.1,0.2-0.3,0.4-0.4,0.6c-0.2,0.2-0.4,0.3-0.7,0.4
		C214.4,58.4,214.1,58.4,213.8,58.4z M219,70.3c-0.3-0.3-0.6-0.5-0.9-0.6c-0.4-0.2-0.8-0.2-1.2-0.2c-0.4,0-0.8,0.1-1.2,0.2
		c-0.3,0.1-0.6,0.2-0.9,0.4v-5.5h-1.1v10.9h1.1v-1h0c0.2,0.3,0.5,0.6,0.9,0.8c0.4,0.2,0.7,0.3,1.2,0.3c0.4,0,0.8-0.1,1.2-0.2
		c0.4-0.2,0.7-0.4,0.9-0.7c0.2-0.3,0.4-0.6,0.6-1c0.1-0.4,0.2-0.7,0.2-1.1c0-0.4-0.1-0.8-0.2-1.1C219.5,70.9,219.3,70.5,219,70.3z
		 M218.6,73.1c-0.1,0.2-0.2,0.4-0.4,0.6c-0.2,0.2-0.4,0.3-0.6,0.4c-0.2,0.1-0.5,0.1-0.8,0.1c-0.3,0-0.6,0-0.8-0.2
		c-0.2-0.1-0.4-0.3-0.6-0.4c-0.2-0.2-0.3-0.4-0.4-0.6c-0.1-0.2-0.1-0.5-0.1-0.7c0-0.2,0-0.5,0.1-0.7c0.1-0.2,0.2-0.4,0.4-0.6
		c0.2-0.2,0.4-0.3,0.6-0.4c0.2-0.1,0.5-0.2,0.8-0.2c0.3,0,0.6,0,0.8,0.2c0.2,0.1,0.4,0.2,0.6,0.4c0.2,0.2,0.3,0.4,0.4,0.6
		c0.1,0.2,0.1,0.5,0.1,0.7C218.7,72.6,218.7,72.8,218.6,73.1z M145.2,70.3c-0.3-0.3-0.6-0.5-1-0.6c-0.4-0.2-0.8-0.2-1.2-0.2
		c-0.4,0-0.8,0.1-1.2,0.2c-0.4,0.2-0.7,0.4-1,0.6c-0.3,0.3-0.5,0.6-0.6,1c-0.2,0.4-0.2,0.8-0.2,1.2c0,0.4,0.1,0.8,0.2,1.2
		c0.2,0.4,0.4,0.7,0.6,1c0.3,0.3,0.6,0.5,1,0.6c0.4,0.2,0.7,0.2,1.2,0.2c0.4,0,0.8-0.1,1.2-0.2c0.4-0.2,0.7-0.4,0.9-0.6
		c0.3-0.3,0.5-0.6,0.6-1c0.2-0.4,0.2-0.8,0.2-1.2c0-0.4-0.1-0.8-0.2-1.2C145.7,70.8,145.5,70.5,145.2,70.3z M144.9,73.1
		c-0.1,0.2-0.2,0.4-0.4,0.6c-0.2,0.2-0.4,0.3-0.6,0.4c-0.2,0.1-0.5,0.1-0.8,0.1c-0.3,0-0.5,0-0.8-0.1c-0.2-0.1-0.4-0.2-0.6-0.4
		c-0.2-0.2-0.3-0.4-0.4-0.6c-0.1-0.2-0.1-0.5-0.1-0.7c0-0.3,0-0.5,0.1-0.7c0.1-0.2,0.2-0.4,0.4-0.6c0.2-0.2,0.4-0.3,0.6-0.4
		c0.2-0.1,0.5-0.2,0.8-0.2c0.3,0,0.5,0,0.8,0.2c0.2,0.1,0.4,0.2,0.6,0.4c0.2,0.2,0.3,0.4,0.4,0.6c0.1,0.2,0.1,0.5,0.1,0.7
		C145,72.6,145,72.9,144.9,73.1z M127.3,59.5c0.5,0,0.8-0.1,1.1-0.2c0.3-0.1,0.6-0.3,0.8-0.5c0.2-0.2,0.3-0.5,0.4-0.8
		c0.1-0.3,0.1-0.7,0.1-1.1v-3.4h-1.1v3.1c0,0.2,0,0.5,0,0.7c0,0.2-0.1,0.4-0.2,0.6c-0.1,0.2-0.2,0.3-0.4,0.4
		c-0.2,0.1-0.4,0.1-0.7,0.1c-0.3,0-0.6,0-0.7-0.1c-0.2-0.1-0.3-0.2-0.4-0.4c-0.1-0.2-0.2-0.3-0.2-0.6c0-0.2,0-0.4,0-0.7v-3.1h-1.1
		v3.4c0,0.4,0,0.7,0.1,1.1c0.1,0.3,0.2,0.6,0.4,0.8c0.2,0.2,0.5,0.4,0.8,0.5C126.4,59.5,126.8,59.5,127.3,59.5z M123.4,70.3
		c-0.3-0.3-0.6-0.5-1-0.6c-0.4-0.2-0.8-0.2-1.2-0.2c-0.4,0-0.8,0.1-1.2,0.2c-0.4,0.2-0.7,0.4-1,0.6c-0.3,0.3-0.5,0.6-0.6,1
		c-0.2,0.4-0.2,0.8-0.2,1.2c0,0.4,0.1,0.8,0.2,1.2c0.2,0.4,0.4,0.7,0.6,1c0.3,0.3,0.6,0.5,1,0.6c0.4,0.2,0.7,0.2,1.2,0.2
		c0.4,0,0.8-0.1,1.2-0.2c0.4-0.2,0.7-0.4,0.9-0.6c0.3-0.3,0.5-0.6,0.6-1c0.2-0.4,0.2-0.8,0.2-1.2c0-0.4-0.1-0.8-0.2-1.2
		C123.9,70.8,123.7,70.5,123.4,70.3z M123,73.1c-0.1,0.2-0.2,0.4-0.4,0.6c-0.2,0.2-0.4,0.3-0.6,0.4c-0.2,0.1-0.5,0.1-0.8,0.1
		c-0.3,0-0.5,0-0.8-0.1c-0.2-0.1-0.4-0.2-0.6-0.4c-0.2-0.2-0.3-0.4-0.4-0.6c-0.1-0.2-0.1-0.5-0.1-0.7c0-0.3,0-0.5,0.1-0.7
		c0.1-0.2,0.2-0.4,0.4-0.6c0.2-0.2,0.4-0.3,0.6-0.4c0.2-0.1,0.5-0.2,0.8-0.2c0.3,0,0.5,0,0.8,0.2c0.2,0.1,0.4,0.2,0.6,0.4
		c0.2,0.2,0.3,0.4,0.4,0.6c0.1,0.2,0.1,0.5,0.1,0.7C123.2,72.6,123.1,72.9,123,73.1z M130.4,70.1c-0.2-0.2-0.4-0.4-0.6-0.6
		c-0.3-0.1-0.6-0.2-1-0.2c-0.4,0-0.7,0.1-1,0.3c-0.3,0.2-0.5,0.4-0.7,0.7v-0.7h-1.1v5.7h1.1v-2.7c0-0.2,0-0.5,0-0.8
		c0-0.3,0.1-0.5,0.2-0.7c0.1-0.2,0.2-0.4,0.4-0.5c0.2-0.1,0.5-0.2,0.8-0.2c0.3,0,0.5,0,0.7,0.1c0.2,0.1,0.3,0.2,0.4,0.4
		c0.1,0.2,0.1,0.3,0.2,0.5c0,0.2,0,0.4,0,0.7v3.2h1.1v-3.5c0-0.3,0-0.7-0.1-1C130.7,70.6,130.6,70.4,130.4,70.1z M132.5,59.5v-4.9
		h1.1v-1.1h-1.1v-2.2h-1.1v2.2h-0.6v1.1h0.6v4.9H132.5z M118.3,59.5h1.1v-6h-1.1V59.5z M118.8,51.4c0.1,0,0.3,0,0.4-0.2
		c0.1-0.1,0.2-0.2,0.2-0.4c0-0.1-0.1-0.3-0.2-0.4c-0.1-0.1-0.2-0.2-0.4-0.2c-0.2,0-0.3,0.1-0.4,0.2c-0.1,0.1-0.2,0.2-0.2,0.4
		c0,0.2,0,0.3,0.2,0.4C118.5,51.3,118.7,51.4,118.8,51.4z M111.3,58.4c-0.3,0-0.6-0.1-0.8-0.3c-0.2-0.2-0.3-0.4-0.5-0.7l-0.9,0.4
		c0.2,0.5,0.4,0.9,0.8,1.2c0.4,0.3,0.8,0.5,1.4,0.5c0.3,0,0.5,0,0.8-0.1c0.2-0.1,0.5-0.2,0.7-0.4c0.2-0.2,0.4-0.4,0.5-0.6
		c0.1-0.2,0.2-0.5,0.2-0.7c0-0.2,0-0.4-0.1-0.6c-0.1-0.2-0.2-0.3-0.3-0.4c-0.1-0.1-0.3-0.2-0.4-0.3c-0.2-0.1-0.3-0.2-0.5-0.2
		c-0.2-0.1-0.4-0.1-0.5-0.2c-0.2-0.1-0.3-0.1-0.4-0.2c-0.1-0.1-0.2-0.2-0.3-0.2c-0.1-0.1-0.1-0.2-0.1-0.3c0-0.2,0.1-0.3,0.2-0.4
		c0.2-0.1,0.3-0.2,0.5-0.2c0.2,0,0.4,0.1,0.5,0.2c0.1,0.1,0.3,0.3,0.3,0.4l0.9-0.5c-0.1-0.3-0.4-0.6-0.7-0.9c-0.3-0.2-0.6-0.4-1-0.4
		c-0.3,0-0.5,0-0.7,0.1c-0.2,0.1-0.4,0.2-0.6,0.3c-0.2,0.1-0.3,0.3-0.4,0.5c-0.1,0.2-0.2,0.4-0.2,0.6c0,0.3,0.1,0.5,0.2,0.7
		c0.1,0.2,0.3,0.3,0.5,0.4c0.2,0.1,0.4,0.2,0.7,0.3c0.2,0.1,0.4,0.2,0.7,0.3c0.2,0.1,0.4,0.2,0.5,0.3c0.1,0.1,0.2,0.3,0.2,0.5
		c0,0.2-0.1,0.5-0.3,0.6C111.8,58.4,111.5,58.4,111.3,58.4z M112.1,65.9c-0.6,0.3-1.2,0.6-1.6,1.1c-0.5,0.5-0.8,1-1.1,1.6
		c-0.3,0.6-0.4,1.2-0.4,1.9c0,0.7,0.1,1.3,0.4,1.9c0.3,0.6,0.6,1.1,1.1,1.6c0.5,0.4,1,0.8,1.6,1c0.6,0.3,1.3,0.4,2,0.4
		c0.5,0,1-0.1,1.5-0.2c0.5-0.2,1-0.4,1.4-0.7v-1.3c-0.4,0.3-0.9,0.6-1.4,0.8c-0.5,0.2-1.1,0.3-1.6,0.3c-0.6,0-1.1-0.1-1.6-0.3
		c-0.5-0.2-0.9-0.5-1.3-0.8c-0.4-0.4-0.7-0.8-0.9-1.2c-0.2-0.5-0.3-0.9-0.3-1.4c0-0.5,0.1-1,0.3-1.5c0.2-0.5,0.5-0.9,0.9-1.2
		c0.4-0.3,0.8-0.6,1.3-0.8c0.5-0.2,1-0.3,1.6-0.3c0.6,0,1.1,0.1,1.6,0.3c0.5,0.2,1,0.5,1.4,0.8v-1.3c-0.9-0.6-1.9-0.9-3-0.9
		C113.4,65.5,112.8,65.7,112.1,65.9z M116.1,51.3H115v2.2h-0.6v1.1h0.6v4.9h1.1v-4.9h1.1v-1.1h-1.1V51.3z M139.2,54.4
		c-0.3-0.3-0.6-0.5-1-0.6c-0.4-0.2-0.8-0.2-1.2-0.2c-0.4,0-0.8,0.1-1.2,0.2c-0.4,0.2-0.7,0.4-1,0.6c-0.3,0.3-0.5,0.6-0.6,1
		c-0.2,0.4-0.2,0.8-0.2,1.2c0,0.4,0.1,0.8,0.2,1.2c0.2,0.4,0.4,0.7,0.6,1c0.3,0.3,0.6,0.5,1,0.6c0.4,0.2,0.8,0.2,1.2,0.2
		c0.4,0,0.8-0.1,1.2-0.2c0.4-0.2,0.7-0.4,0.9-0.6c0.3-0.3,0.5-0.6,0.6-1c0.2-0.4,0.2-0.7,0.2-1.2c0-0.4-0.1-0.8-0.2-1.2
		C139.7,55,139.5,54.7,139.2,54.4z M138.9,57.3c-0.1,0.2-0.2,0.4-0.4,0.6c-0.2,0.2-0.4,0.3-0.6,0.4c-0.2,0.1-0.5,0.1-0.8,0.1
		c-0.3,0-0.5,0-0.8-0.1c-0.2-0.1-0.4-0.2-0.6-0.4c-0.2-0.2-0.3-0.4-0.4-0.6c-0.1-0.2-0.1-0.5-0.1-0.7c0-0.3,0-0.5,0.1-0.7
		c0.1-0.2,0.2-0.4,0.4-0.6c0.2-0.2,0.4-0.3,0.6-0.4c0.2-0.1,0.5-0.2,0.8-0.2c0.3,0,0.5,0,0.8,0.2c0.2,0.1,0.4,0.2,0.6,0.4
		c0.2,0.2,0.3,0.4,0.4,0.6c0.1,0.2,0.1,0.5,0.1,0.7C139,56.8,139,57.1,138.9,57.3z M147.7,75.4h1.1V64.5h-1.1V75.4z M150,54.1
		L150,54.1c-0.3-0.2-0.6-0.3-1-0.4c-0.4-0.1-0.7-0.2-1.1-0.2c-0.4,0-0.9,0.1-1.2,0.2c-0.4,0.2-0.7,0.4-0.9,0.6
		c-0.3,0.3-0.4,0.6-0.6,1c-0.1,0.4-0.2,0.8-0.2,1.2c0,0.4,0.1,0.8,0.2,1.1c0.1,0.4,0.3,0.7,0.6,1c0.2,0.3,0.5,0.5,0.9,0.7
		c0.3,0.2,0.8,0.2,1.2,0.2c0.4,0,0.8-0.1,1.1-0.3c0.4-0.2,0.7-0.4,0.9-0.8v0.9h1.1V48.6h-1.1L150,54.1z M149.8,57.2
		c-0.1,0.2-0.2,0.4-0.4,0.6c-0.2,0.2-0.4,0.3-0.6,0.4c-0.2,0.1-0.5,0.2-0.8,0.2c-0.3,0-0.6,0-0.8-0.2c-0.2-0.1-0.4-0.3-0.6-0.4
		c-0.2-0.2-0.3-0.4-0.4-0.6c-0.1-0.2-0.1-0.5-0.1-0.7c0-0.2,0-0.5,0.1-0.7c0.1-0.2,0.2-0.4,0.4-0.6c0.2-0.2,0.4-0.3,0.6-0.4
		c0.2-0.1,0.5-0.2,0.8-0.2c0.3,0,0.6,0,0.8,0.2c0.2,0.1,0.4,0.2,0.6,0.4c0.2,0.2,0.3,0.4,0.4,0.6c0.1,0.2,0.1,0.5,0.1,0.7
		C149.9,56.8,149.9,57,149.8,57.2z M155.7,59.5c0.6,0,1.2-0.2,1.7-0.5c0.5-0.3,0.9-0.8,1.2-1.3l-0.9-0.5c-0.2,0.4-0.5,0.7-0.8,0.9
		c-0.3,0.2-0.7,0.4-1.1,0.4c-0.3,0-0.6,0-0.8-0.1c-0.2-0.1-0.5-0.2-0.6-0.3c-0.2-0.1-0.3-0.3-0.4-0.5c-0.1-0.2-0.2-0.4-0.2-0.6h4.8
		c0-0.4,0-0.8-0.1-1.2c-0.1-0.4-0.3-0.7-0.5-1.1c-0.3-0.3-0.6-0.5-0.9-0.7c-0.4-0.2-0.8-0.3-1.3-0.3c-0.5,0-0.9,0.1-1.3,0.2
		c-0.4,0.2-0.7,0.4-0.9,0.7c-0.3,0.3-0.5,0.6-0.6,1c-0.1,0.4-0.2,0.8-0.2,1.2c0,0.4,0.1,0.8,0.2,1.1c0.1,0.4,0.3,0.7,0.6,0.9
		c0.3,0.3,0.6,0.5,1,0.6C154.8,59.5,155.2,59.5,155.7,59.5z M154,55.3c0.1-0.1,0.3-0.2,0.4-0.4c0.2-0.1,0.4-0.2,0.6-0.2
		c0.2-0.1,0.4-0.1,0.7-0.1c0.2,0,0.4,0,0.6,0.1c0.2,0.1,0.4,0.1,0.5,0.2c0.2,0.1,0.3,0.2,0.4,0.4c0.1,0.1,0.2,0.3,0.2,0.4h-3.7
		C153.8,55.6,153.9,55.4,154,55.3z M158.7,70L158.7,70c-0.3-0.2-0.6-0.3-1-0.4c-0.4-0.1-0.7-0.2-1.1-0.2c-0.5,0-0.9,0.1-1.2,0.2
		c-0.4,0.2-0.7,0.4-0.9,0.6c-0.2,0.3-0.4,0.6-0.6,1c-0.1,0.4-0.2,0.7-0.2,1.1c0,0.4,0.1,0.8,0.2,1.1c0.1,0.4,0.3,0.7,0.6,1
		c0.2,0.3,0.5,0.5,0.9,0.7c0.3,0.2,0.7,0.2,1.2,0.2c0.4,0,0.8-0.1,1.1-0.3c0.4-0.2,0.7-0.4,0.9-0.8v0.9h1.1V64.5h-1.1L158.7,70z
		 M158.5,73.1c-0.1,0.2-0.2,0.4-0.4,0.6c-0.2,0.2-0.4,0.3-0.6,0.4c-0.2,0.1-0.5,0.1-0.8,0.1c-0.3,0-0.6,0-0.8-0.2
		c-0.2-0.1-0.4-0.3-0.6-0.4c-0.2-0.2-0.3-0.4-0.4-0.6c-0.1-0.2-0.1-0.5-0.1-0.7c0-0.2,0-0.5,0.1-0.7c0.1-0.2,0.2-0.4,0.4-0.6
		c0.2-0.2,0.4-0.3,0.6-0.4c0.2-0.1,0.5-0.2,0.8-0.2c0.3,0,0.6,0,0.8,0.2c0.2,0.1,0.4,0.2,0.6,0.4c0.2,0.2,0.3,0.4,0.4,0.6
		c0.1,0.2,0.1,0.5,0.1,0.7C158.7,72.6,158.6,72.8,158.5,73.1z M167.2,71.4c-0.1-0.4-0.3-0.7-0.5-1.1c-0.3-0.3-0.6-0.5-0.9-0.7
		c-0.4-0.2-0.8-0.3-1.3-0.3c-0.5,0-0.9,0.1-1.3,0.2c-0.4,0.2-0.7,0.4-0.9,0.7c-0.3,0.3-0.4,0.6-0.6,1c-0.1,0.4-0.2,0.8-0.2,1.2
		c0,0.4,0.1,0.8,0.2,1.1c0.1,0.4,0.3,0.7,0.6,0.9c0.3,0.3,0.6,0.5,1,0.6c0.4,0.2,0.8,0.2,1.3,0.2c0.6,0,1.2-0.2,1.7-0.5
		c0.5-0.3,0.9-0.8,1.2-1.3l-0.9-0.5c-0.2,0.4-0.4,0.7-0.8,0.9c-0.3,0.2-0.7,0.4-1.1,0.4c-0.3,0-0.6,0-0.8-0.1
		c-0.2-0.1-0.5-0.2-0.6-0.3c-0.2-0.2-0.3-0.3-0.4-0.5c-0.1-0.2-0.2-0.4-0.2-0.6h4.8C167.3,72.2,167.3,71.8,167.2,71.4z M162.5,71.6
		c0-0.1,0.1-0.3,0.2-0.4c0.1-0.1,0.3-0.2,0.4-0.4c0.2-0.1,0.4-0.2,0.6-0.2c0.2-0.1,0.4-0.1,0.7-0.1c0.2,0,0.4,0,0.7,0.1
		c0.2,0.1,0.4,0.1,0.5,0.2c0.2,0.1,0.3,0.2,0.4,0.4c0.1,0.1,0.2,0.3,0.2,0.4H162.5z M138.8,69.4c-0.3,0-0.6,0.1-0.8,0.3
		c-0.2,0.2-0.4,0.4-0.6,0.7h0v-0.9h-1.1v6h1.1v-2.8c0-0.2,0-0.4,0-0.6c0-0.2,0.1-0.5,0.1-0.7c0.1-0.2,0.2-0.4,0.4-0.5
		c0.2-0.1,0.4-0.2,0.7-0.2c0.1,0,0.2,0,0.3,0.1c0.1,0.1,0.2,0.1,0.3,0.2l0.5-1c-0.2-0.1-0.3-0.2-0.5-0.2
		C139.1,69.4,138.9,69.4,138.8,69.4z M122.6,59.5v-4.9h1.1v-1.1h-1.1v-2.2h-1.1v2.2h-0.6v1.1h0.6v4.9H122.6z M134.1,67.1H133v2.2
		h-0.6v1.1h0.6v4.9h1.1v-4.9h1.1v-1.1h-1.1V67.1z"/>
	<g>
		<defs>
			<rect id="SVGID_34_" x="-869.9" y="-522.6" width="798.2" height="777.2"/>
		</defs>
		<clipPath id="SVGID_2_">
			<use xlink:href="#SVGID_34_"  style="overflow:visible;"/>
		</clipPath>
		<g class="st1">
			
				<image style="overflow:visible;" width="3705" height="771" xlink:href="../../../../Volumes/SERVER/• Trabajos/Silverpeak/Uruguay/•Imagenes/bdn_4.jpg"  transform="matrix(1.0207 0 0 1.0207 -2697.552 -532.4887)">
			</image>
		</g>
	</g>
</g>
<g id="Layer_2">
</g>
</svg>
